<mxfile host="app.diagrams.net" agent="Mozilla/5.0 (Windows NT 10.0; Win64; x64) AppleWebKit/537.36 (KHTML, like Gecko) Chrome/126.0.0.0 Safari/537.36" version="24.7.4">
  <diagram name="Trang-1" id="wyOwnEwqPiXWQ402WrO7">
    <mxGraphModel dx="1434" dy="772" grid="1" gridSize="10" guides="1" tooltips="1" connect="1" arrows="1" fold="1" page="1" pageScale="1" pageWidth="1169" pageHeight="827" math="0" shadow="0">
      <root>
        <mxCell id="0" />
        <mxCell id="1" parent="0" />
        <mxCell id="kh8GKiCDwH6RABgB_8PD-3" value="1" style="swimlane;fontStyle=0;childLayout=stackLayout;horizontal=1;startSize=30;fillColor=#ffffff;horizontalStack=0;resizeParent=1;resizeParentMax=0;resizeLast=0;collapsible=0;marginBottom=0;swimlaneFillColor=#ffffff;rounded=1;" vertex="1" parent="1">
          <mxGeometry x="280" y="190" width="170" height="110" as="geometry" />
        </mxCell>
        <mxCell id="kh8GKiCDwH6RABgB_8PD-4" value="Quản lý khách hàng" style="text;html=1;align=center;verticalAlign=middle;whiteSpace=wrap;rounded=0;" vertex="1" parent="kh8GKiCDwH6RABgB_8PD-3">
          <mxGeometry y="30" width="170" height="80" as="geometry" />
        </mxCell>
        <mxCell id="kh8GKiCDwH6RABgB_8PD-6" style="edgeStyle=orthogonalEdgeStyle;rounded=0;orthogonalLoop=1;jettySize=auto;html=1;exitX=1;exitY=0.25;exitDx=0;exitDy=0;entryX=0.75;entryY=0;entryDx=0;entryDy=0;" edge="1" parent="1" source="kh8GKiCDwH6RABgB_8PD-5" target="kh8GKiCDwH6RABgB_8PD-3">
          <mxGeometry relative="1" as="geometry">
            <Array as="points">
              <mxPoint x="407" y="112" />
            </Array>
          </mxGeometry>
        </mxCell>
        <mxCell id="kh8GKiCDwH6RABgB_8PD-7" value="Thông tin khách hàng" style="edgeLabel;html=1;align=center;verticalAlign=middle;resizable=0;points=[];" vertex="1" connectable="0" parent="kh8GKiCDwH6RABgB_8PD-6">
          <mxGeometry x="-0.2521" y="-1" relative="1" as="geometry">
            <mxPoint as="offset" />
          </mxGeometry>
        </mxCell>
        <mxCell id="kh8GKiCDwH6RABgB_8PD-5" value="Khách hàng" style="html=1;dashed=0;whiteSpace=wrap;" vertex="1" parent="1">
          <mxGeometry x="30" y="60" width="160" height="110" as="geometry" />
        </mxCell>
        <mxCell id="kh8GKiCDwH6RABgB_8PD-8" value="3" style="swimlane;fontStyle=0;childLayout=stackLayout;horizontal=1;startSize=30;fillColor=#ffffff;horizontalStack=0;resizeParent=1;resizeParentMax=0;resizeLast=0;collapsible=0;marginBottom=0;swimlaneFillColor=#ffffff;rounded=1;" vertex="1" parent="1">
          <mxGeometry x="570" y="110" width="170" height="110" as="geometry" />
        </mxCell>
        <mxCell id="kh8GKiCDwH6RABgB_8PD-9" value="Quản lý dịch vụ" style="text;html=1;align=center;verticalAlign=middle;whiteSpace=wrap;rounded=0;" vertex="1" parent="kh8GKiCDwH6RABgB_8PD-8">
          <mxGeometry y="30" width="170" height="80" as="geometry" />
        </mxCell>
        <mxCell id="kh8GKiCDwH6RABgB_8PD-10" value="2" style="swimlane;fontStyle=0;childLayout=stackLayout;horizontal=1;startSize=30;fillColor=#ffffff;horizontalStack=0;resizeParent=1;resizeParentMax=0;resizeLast=0;collapsible=0;marginBottom=0;swimlaneFillColor=#ffffff;rounded=1;" vertex="1" parent="1">
          <mxGeometry x="290" y="410" width="170" height="110" as="geometry" />
        </mxCell>
        <mxCell id="kh8GKiCDwH6RABgB_8PD-11" value="Quản lý thuê phòng" style="text;html=1;align=center;verticalAlign=middle;whiteSpace=wrap;rounded=0;" vertex="1" parent="kh8GKiCDwH6RABgB_8PD-10">
          <mxGeometry y="30" width="170" height="80" as="geometry" />
        </mxCell>
        <mxCell id="kh8GKiCDwH6RABgB_8PD-12" value="4" style="swimlane;fontStyle=0;childLayout=stackLayout;horizontal=1;startSize=30;fillColor=#ffffff;horizontalStack=0;resizeParent=1;resizeParentMax=0;resizeLast=0;collapsible=0;marginBottom=0;swimlaneFillColor=#ffffff;rounded=1;" vertex="1" parent="1">
          <mxGeometry x="908.64" y="350" width="170" height="110" as="geometry" />
        </mxCell>
        <mxCell id="kh8GKiCDwH6RABgB_8PD-13" value="Quản lý tiện nghi" style="text;html=1;align=center;verticalAlign=middle;whiteSpace=wrap;rounded=0;" vertex="1" parent="kh8GKiCDwH6RABgB_8PD-12">
          <mxGeometry y="30" width="170" height="80" as="geometry" />
        </mxCell>
        <mxCell id="kh8GKiCDwH6RABgB_8PD-14" value="6" style="swimlane;fontStyle=0;childLayout=stackLayout;horizontal=1;startSize=30;fillColor=#ffffff;horizontalStack=0;resizeParent=1;resizeParentMax=0;resizeLast=0;collapsible=0;marginBottom=0;swimlaneFillColor=#ffffff;rounded=1;" vertex="1" parent="1">
          <mxGeometry x="610" y="600" width="170" height="110" as="geometry" />
        </mxCell>
        <mxCell id="kh8GKiCDwH6RABgB_8PD-92" style="edgeStyle=orthogonalEdgeStyle;rounded=0;orthogonalLoop=1;jettySize=auto;html=1;exitX=0.75;exitY=1;exitDx=0;exitDy=0;" edge="1" parent="kh8GKiCDwH6RABgB_8PD-14" source="kh8GKiCDwH6RABgB_8PD-15">
          <mxGeometry relative="1" as="geometry">
            <mxPoint x="127.5" y="190" as="targetPoint" />
          </mxGeometry>
        </mxCell>
        <mxCell id="kh8GKiCDwH6RABgB_8PD-112" value="Cập nhật" style="edgeLabel;html=1;align=center;verticalAlign=middle;resizable=0;points=[];" vertex="1" connectable="0" parent="kh8GKiCDwH6RABgB_8PD-92">
          <mxGeometry x="0.16" y="-2" relative="1" as="geometry">
            <mxPoint as="offset" />
          </mxGeometry>
        </mxCell>
        <mxCell id="kh8GKiCDwH6RABgB_8PD-15" value="Tra cứu và thống kê" style="text;html=1;align=center;verticalAlign=middle;whiteSpace=wrap;rounded=0;" vertex="1" parent="kh8GKiCDwH6RABgB_8PD-14">
          <mxGeometry y="30" width="170" height="80" as="geometry" />
        </mxCell>
        <mxCell id="kh8GKiCDwH6RABgB_8PD-82" style="edgeStyle=orthogonalEdgeStyle;rounded=0;orthogonalLoop=1;jettySize=auto;html=1;exitX=0.25;exitY=0;exitDx=0;exitDy=0;entryX=1;entryY=0.5;entryDx=0;entryDy=0;" edge="1" parent="1" source="kh8GKiCDwH6RABgB_8PD-16" target="kh8GKiCDwH6RABgB_8PD-4">
          <mxGeometry relative="1" as="geometry" />
        </mxCell>
        <mxCell id="kh8GKiCDwH6RABgB_8PD-83" value="Đơn giá" style="edgeLabel;html=1;align=center;verticalAlign=middle;resizable=0;points=[];" vertex="1" connectable="0" parent="kh8GKiCDwH6RABgB_8PD-82">
          <mxGeometry x="0.3625" relative="1" as="geometry">
            <mxPoint as="offset" />
          </mxGeometry>
        </mxCell>
        <mxCell id="kh8GKiCDwH6RABgB_8PD-16" value="5" style="swimlane;fontStyle=0;childLayout=stackLayout;horizontal=1;startSize=30;fillColor=#ffffff;horizontalStack=0;resizeParent=1;resizeParentMax=0;resizeLast=0;collapsible=0;marginBottom=0;swimlaneFillColor=#ffffff;rounded=1;" vertex="1" parent="1">
          <mxGeometry x="590" y="390" width="170" height="110" as="geometry" />
        </mxCell>
        <mxCell id="kh8GKiCDwH6RABgB_8PD-17" value="Quản lý trả phòng" style="text;html=1;align=center;verticalAlign=middle;whiteSpace=wrap;rounded=0;" vertex="1" parent="kh8GKiCDwH6RABgB_8PD-16">
          <mxGeometry y="30" width="170" height="80" as="geometry" />
        </mxCell>
        <mxCell id="kh8GKiCDwH6RABgB_8PD-33" style="edgeStyle=orthogonalEdgeStyle;rounded=0;orthogonalLoop=1;jettySize=auto;html=1;exitX=1;exitY=0.5;exitDx=0;exitDy=0;entryX=1.012;entryY=0.179;entryDx=0;entryDy=0;entryPerimeter=0;" edge="1" parent="1" source="kh8GKiCDwH6RABgB_8PD-26" target="kh8GKiCDwH6RABgB_8PD-14">
          <mxGeometry relative="1" as="geometry">
            <mxPoint x="1099.9999999999998" y="510" as="targetPoint" />
            <Array as="points">
              <mxPoint x="1075" y="505" />
              <mxPoint x="1075" y="560" />
              <mxPoint x="830" y="560" />
              <mxPoint x="830" y="620" />
            </Array>
          </mxGeometry>
        </mxCell>
        <mxCell id="kh8GKiCDwH6RABgB_8PD-34" value="Tra cứu dịch vụ" style="edgeLabel;html=1;align=center;verticalAlign=middle;resizable=0;points=[];" vertex="1" connectable="0" parent="kh8GKiCDwH6RABgB_8PD-33">
          <mxGeometry x="0.0875" y="-2" relative="1" as="geometry">
            <mxPoint as="offset" />
          </mxGeometry>
        </mxCell>
        <mxCell id="kh8GKiCDwH6RABgB_8PD-107" style="edgeStyle=orthogonalEdgeStyle;rounded=0;orthogonalLoop=1;jettySize=auto;html=1;exitX=1;exitY=0;exitDx=0;exitDy=0;entryX=1;entryY=0.25;entryDx=0;entryDy=0;" edge="1" parent="1" source="kh8GKiCDwH6RABgB_8PD-26" target="kh8GKiCDwH6RABgB_8PD-9">
          <mxGeometry relative="1" as="geometry">
            <Array as="points">
              <mxPoint x="1100" y="490" />
              <mxPoint x="1100" y="160" />
            </Array>
          </mxGeometry>
        </mxCell>
        <mxCell id="kh8GKiCDwH6RABgB_8PD-108" value="Tra cứu dịch vụ" style="edgeLabel;html=1;align=center;verticalAlign=middle;resizable=0;points=[];" vertex="1" connectable="0" parent="kh8GKiCDwH6RABgB_8PD-107">
          <mxGeometry x="0.5446" y="2" relative="1" as="geometry">
            <mxPoint as="offset" />
          </mxGeometry>
        </mxCell>
        <mxCell id="kh8GKiCDwH6RABgB_8PD-26" value="" style="html=1;dashed=0;whiteSpace=wrap;shape=mxgraph.dfd.dataStoreID;align=left;spacingLeft=3;points=[[0,0],[0.5,0],[1,0],[0,0.5],[1,0.5],[0,1],[0.5,1],[1,1]];" vertex="1" parent="1">
          <mxGeometry x="1000" y="490" width="120" height="30" as="geometry" />
        </mxCell>
        <mxCell id="kh8GKiCDwH6RABgB_8PD-27" value="Dịch vụ" style="text;html=1;align=center;verticalAlign=middle;whiteSpace=wrap;rounded=0;" vertex="1" parent="1">
          <mxGeometry x="1030" y="490" width="60" height="30" as="geometry" />
        </mxCell>
        <mxCell id="kh8GKiCDwH6RABgB_8PD-39" value="" style="html=1;dashed=0;whiteSpace=wrap;shape=mxgraph.dfd.dataStoreID;align=left;spacingLeft=3;points=[[0,0],[0.5,0],[1,0],[0,0.5],[1,0.5],[0,1],[0.5,1],[1,1]];" vertex="1" parent="1">
          <mxGeometry x="788.64" y="797" width="120" height="30" as="geometry" />
        </mxCell>
        <mxCell id="kh8GKiCDwH6RABgB_8PD-40" value="Khách hàng" style="text;html=1;align=center;verticalAlign=middle;whiteSpace=wrap;rounded=0;" vertex="1" parent="1">
          <mxGeometry x="818.64" y="797" width="60" height="30" as="geometry" />
        </mxCell>
        <mxCell id="kh8GKiCDwH6RABgB_8PD-41" style="edgeStyle=orthogonalEdgeStyle;rounded=0;orthogonalLoop=1;jettySize=auto;html=1;exitX=0.5;exitY=0;exitDx=0;exitDy=0;" edge="1" parent="1" source="kh8GKiCDwH6RABgB_8PD-40" target="kh8GKiCDwH6RABgB_8PD-15">
          <mxGeometry relative="1" as="geometry">
            <mxPoint x="699.9999999999999" y="804.8799999999999" as="targetPoint" />
            <Array as="points">
              <mxPoint x="849" y="750" />
              <mxPoint x="770" y="750" />
              <mxPoint x="770" y="711" />
              <mxPoint x="772" y="711" />
            </Array>
          </mxGeometry>
        </mxCell>
        <mxCell id="kh8GKiCDwH6RABgB_8PD-113" value="Tra cứu" style="edgeLabel;html=1;align=center;verticalAlign=middle;resizable=0;points=[];" vertex="1" connectable="0" parent="kh8GKiCDwH6RABgB_8PD-41">
          <mxGeometry x="-0.1676" y="2" relative="1" as="geometry">
            <mxPoint as="offset" />
          </mxGeometry>
        </mxCell>
        <mxCell id="kh8GKiCDwH6RABgB_8PD-42" value="" style="html=1;dashed=0;whiteSpace=wrap;shape=mxgraph.dfd.dataStoreID;align=left;spacingLeft=3;points=[[0,0],[0.5,0],[1,0],[0,0.5],[1,0.5],[0,1],[0.5,1],[1,1]];" vertex="1" parent="1">
          <mxGeometry x="920" y="208.24" width="120" height="30" as="geometry" />
        </mxCell>
        <mxCell id="kh8GKiCDwH6RABgB_8PD-43" value="Tiện nghi" style="text;html=1;align=center;verticalAlign=middle;whiteSpace=wrap;rounded=0;" vertex="1" parent="1">
          <mxGeometry x="950" y="208.24" width="60" height="30" as="geometry" />
        </mxCell>
        <mxCell id="kh8GKiCDwH6RABgB_8PD-44" style="edgeStyle=orthogonalEdgeStyle;rounded=0;orthogonalLoop=1;jettySize=auto;html=1;exitX=0.25;exitY=1;exitDx=0;exitDy=0;entryX=0.408;entryY=0.016;entryDx=0;entryDy=0;entryPerimeter=0;" edge="1" parent="1" source="kh8GKiCDwH6RABgB_8PD-43">
          <mxGeometry relative="1" as="geometry">
            <mxPoint x="964.3599999999999" y="349.9999999999999" as="targetPoint" />
          </mxGeometry>
        </mxCell>
        <mxCell id="kh8GKiCDwH6RABgB_8PD-45" value="Thông tin" style="edgeLabel;html=1;align=center;verticalAlign=middle;resizable=0;points=[];" vertex="1" connectable="0" parent="kh8GKiCDwH6RABgB_8PD-44">
          <mxGeometry x="-0.02" y="1" relative="1" as="geometry">
            <mxPoint x="1" y="-1" as="offset" />
          </mxGeometry>
        </mxCell>
        <mxCell id="kh8GKiCDwH6RABgB_8PD-46" style="edgeStyle=orthogonalEdgeStyle;rounded=0;orthogonalLoop=1;jettySize=auto;html=1;exitX=0.75;exitY=0;exitDx=0;exitDy=0;entryX=0.852;entryY=1.117;entryDx=0;entryDy=0;entryPerimeter=0;" edge="1" parent="1" target="kh8GKiCDwH6RABgB_8PD-42">
          <mxGeometry relative="1" as="geometry">
            <mxPoint x="1022.4999999999998" y="348.2399999999999" as="sourcePoint" />
          </mxGeometry>
        </mxCell>
        <mxCell id="kh8GKiCDwH6RABgB_8PD-47" value="Cập nhật" style="edgeLabel;html=1;align=center;verticalAlign=middle;resizable=0;points=[];" vertex="1" connectable="0" parent="kh8GKiCDwH6RABgB_8PD-46">
          <mxGeometry x="-0.0517" relative="1" as="geometry">
            <mxPoint y="-2" as="offset" />
          </mxGeometry>
        </mxCell>
        <mxCell id="kh8GKiCDwH6RABgB_8PD-48" style="edgeStyle=orthogonalEdgeStyle;rounded=0;orthogonalLoop=1;jettySize=auto;html=1;entryX=0.992;entryY=0.195;entryDx=0;entryDy=0;entryPerimeter=0;" edge="1" parent="1" source="kh8GKiCDwH6RABgB_8PD-12" target="kh8GKiCDwH6RABgB_8PD-16">
          <mxGeometry relative="1" as="geometry">
            <Array as="points">
              <mxPoint x="760" y="411" />
            </Array>
          </mxGeometry>
        </mxCell>
        <mxCell id="kh8GKiCDwH6RABgB_8PD-49" value="Tình trạng tiện nghi" style="edgeLabel;html=1;align=center;verticalAlign=middle;resizable=0;points=[];" vertex="1" connectable="0" parent="kh8GKiCDwH6RABgB_8PD-48">
          <mxGeometry x="-0.0494" y="-1" relative="1" as="geometry">
            <mxPoint as="offset" />
          </mxGeometry>
        </mxCell>
        <mxCell id="kh8GKiCDwH6RABgB_8PD-52" style="edgeStyle=orthogonalEdgeStyle;rounded=0;orthogonalLoop=1;jettySize=auto;html=1;exitX=0.25;exitY=1;exitDx=0;exitDy=0;entryX=0.201;entryY=0.007;entryDx=0;entryDy=0;entryPerimeter=0;" edge="1" parent="1" source="kh8GKiCDwH6RABgB_8PD-4" target="kh8GKiCDwH6RABgB_8PD-10">
          <mxGeometry relative="1" as="geometry" />
        </mxCell>
        <mxCell id="kh8GKiCDwH6RABgB_8PD-53" value="Thông tin phòng đặt" style="edgeLabel;html=1;align=center;verticalAlign=middle;resizable=0;points=[];" vertex="1" connectable="0" parent="kh8GKiCDwH6RABgB_8PD-52">
          <mxGeometry x="-0.097" relative="1" as="geometry">
            <mxPoint as="offset" />
          </mxGeometry>
        </mxCell>
        <mxCell id="kh8GKiCDwH6RABgB_8PD-54" style="edgeStyle=orthogonalEdgeStyle;rounded=0;orthogonalLoop=1;jettySize=auto;html=1;exitX=0.75;exitY=0;exitDx=0;exitDy=0;entryX=0.811;entryY=0.988;entryDx=0;entryDy=0;entryPerimeter=0;" edge="1" parent="1" source="kh8GKiCDwH6RABgB_8PD-10" target="kh8GKiCDwH6RABgB_8PD-4">
          <mxGeometry relative="1" as="geometry" />
        </mxCell>
        <mxCell id="kh8GKiCDwH6RABgB_8PD-55" value="Xuất phiếu đặt phòng" style="edgeLabel;html=1;align=center;verticalAlign=middle;resizable=0;points=[];" vertex="1" connectable="0" parent="kh8GKiCDwH6RABgB_8PD-54">
          <mxGeometry x="-0.1962" y="1" relative="1" as="geometry">
            <mxPoint as="offset" />
          </mxGeometry>
        </mxCell>
        <mxCell id="kh8GKiCDwH6RABgB_8PD-56" value="" style="html=1;dashed=0;whiteSpace=wrap;shape=mxgraph.dfd.dataStoreID;align=left;spacingLeft=3;points=[[0,0],[0.5,0],[1,0],[0,0.5],[1,0.5],[0,1],[0.5,1],[1,1]];" vertex="1" parent="1">
          <mxGeometry x="640" y="797" width="120" height="30" as="geometry" />
        </mxCell>
        <mxCell id="kh8GKiCDwH6RABgB_8PD-57" value="Phòng" style="text;html=1;align=center;verticalAlign=middle;whiteSpace=wrap;rounded=0;" vertex="1" parent="1">
          <mxGeometry x="670" y="797" width="60" height="30" as="geometry" />
        </mxCell>
        <mxCell id="kh8GKiCDwH6RABgB_8PD-58" style="edgeStyle=orthogonalEdgeStyle;rounded=0;orthogonalLoop=1;jettySize=auto;html=1;entryX=0.5;entryY=1;entryDx=0;entryDy=0;" edge="1" parent="1" target="kh8GKiCDwH6RABgB_8PD-15">
          <mxGeometry relative="1" as="geometry">
            <mxPoint x="695" y="796" as="sourcePoint" />
            <mxPoint x="500" y="812" as="targetPoint" />
            <Array as="points">
              <mxPoint x="695" y="750" />
              <mxPoint x="695" y="750" />
            </Array>
          </mxGeometry>
        </mxCell>
        <mxCell id="kh8GKiCDwH6RABgB_8PD-111" value="Tra cứu" style="edgeLabel;html=1;align=center;verticalAlign=middle;resizable=0;points=[];" vertex="1" connectable="0" parent="kh8GKiCDwH6RABgB_8PD-58">
          <mxGeometry x="0.062" y="2" relative="1" as="geometry">
            <mxPoint as="offset" />
          </mxGeometry>
        </mxCell>
        <mxCell id="kh8GKiCDwH6RABgB_8PD-59" style="edgeStyle=orthogonalEdgeStyle;rounded=0;orthogonalLoop=1;jettySize=auto;html=1;exitX=0.75;exitY=1;exitDx=0;exitDy=0;entryX=0;entryY=0.25;entryDx=0;entryDy=0;" edge="1" parent="1" source="kh8GKiCDwH6RABgB_8PD-11" target="kh8GKiCDwH6RABgB_8PD-15">
          <mxGeometry relative="1" as="geometry">
            <Array as="points">
              <mxPoint x="400" y="520" />
              <mxPoint x="400" y="650" />
            </Array>
          </mxGeometry>
        </mxCell>
        <mxCell id="kh8GKiCDwH6RABgB_8PD-60" value="Tra cứu phòng" style="edgeLabel;html=1;align=center;verticalAlign=middle;resizable=0;points=[];" vertex="1" connectable="0" parent="kh8GKiCDwH6RABgB_8PD-59">
          <mxGeometry x="0.1295" y="3" relative="1" as="geometry">
            <mxPoint as="offset" />
          </mxGeometry>
        </mxCell>
        <mxCell id="kh8GKiCDwH6RABgB_8PD-61" style="edgeStyle=orthogonalEdgeStyle;rounded=0;orthogonalLoop=1;jettySize=auto;html=1;exitX=0;exitY=0.75;exitDx=0;exitDy=0;entryX=0.25;entryY=1;entryDx=0;entryDy=0;" edge="1" parent="1" source="kh8GKiCDwH6RABgB_8PD-15" target="kh8GKiCDwH6RABgB_8PD-11">
          <mxGeometry relative="1" as="geometry" />
        </mxCell>
        <mxCell id="kh8GKiCDwH6RABgB_8PD-62" value="Tình trạng phòng" style="edgeLabel;html=1;align=center;verticalAlign=middle;resizable=0;points=[];" vertex="1" connectable="0" parent="kh8GKiCDwH6RABgB_8PD-61">
          <mxGeometry x="-0.2709" y="3" relative="1" as="geometry">
            <mxPoint as="offset" />
          </mxGeometry>
        </mxCell>
        <mxCell id="kh8GKiCDwH6RABgB_8PD-63" style="edgeStyle=orthogonalEdgeStyle;rounded=0;orthogonalLoop=1;jettySize=auto;html=1;exitX=1;exitY=0.5;exitDx=0;exitDy=0;entryX=0.612;entryY=-0.018;entryDx=0;entryDy=0;entryPerimeter=0;" edge="1" parent="1" source="kh8GKiCDwH6RABgB_8PD-5" target="kh8GKiCDwH6RABgB_8PD-3">
          <mxGeometry relative="1" as="geometry">
            <Array as="points">
              <mxPoint x="190" y="140" />
              <mxPoint x="384" y="140" />
            </Array>
          </mxGeometry>
        </mxCell>
        <mxCell id="kh8GKiCDwH6RABgB_8PD-64" value="Đặt phòng" style="edgeLabel;html=1;align=center;verticalAlign=middle;resizable=0;points=[];" vertex="1" connectable="0" parent="kh8GKiCDwH6RABgB_8PD-63">
          <mxGeometry x="-0.0255" y="1" relative="1" as="geometry">
            <mxPoint as="offset" />
          </mxGeometry>
        </mxCell>
        <mxCell id="kh8GKiCDwH6RABgB_8PD-65" style="edgeStyle=orthogonalEdgeStyle;rounded=0;orthogonalLoop=1;jettySize=auto;html=1;exitX=0;exitY=0.25;exitDx=0;exitDy=0;entryX=0.799;entryY=1.051;entryDx=0;entryDy=0;entryPerimeter=0;" edge="1" parent="1" source="kh8GKiCDwH6RABgB_8PD-4" target="kh8GKiCDwH6RABgB_8PD-5">
          <mxGeometry relative="1" as="geometry" />
        </mxCell>
        <mxCell id="kh8GKiCDwH6RABgB_8PD-66" value="Thông tin thanh toán" style="edgeLabel;html=1;align=center;verticalAlign=middle;resizable=0;points=[];" vertex="1" connectable="0" parent="kh8GKiCDwH6RABgB_8PD-65">
          <mxGeometry x="-0.2233" relative="1" as="geometry">
            <mxPoint as="offset" />
          </mxGeometry>
        </mxCell>
        <mxCell id="kh8GKiCDwH6RABgB_8PD-67" style="edgeStyle=orthogonalEdgeStyle;rounded=0;orthogonalLoop=1;jettySize=auto;html=1;exitX=1;exitY=0.75;exitDx=0;exitDy=0;entryX=0;entryY=0.25;entryDx=0;entryDy=0;" edge="1" parent="1" source="kh8GKiCDwH6RABgB_8PD-4" target="kh8GKiCDwH6RABgB_8PD-9">
          <mxGeometry relative="1" as="geometry">
            <Array as="points">
              <mxPoint x="450" y="210" />
              <mxPoint x="510" y="210" />
              <mxPoint x="510" y="160" />
            </Array>
          </mxGeometry>
        </mxCell>
        <mxCell id="kh8GKiCDwH6RABgB_8PD-68" value="Yêu cầu dịch vụ" style="edgeLabel;html=1;align=center;verticalAlign=middle;resizable=0;points=[];" vertex="1" connectable="0" parent="kh8GKiCDwH6RABgB_8PD-67">
          <mxGeometry x="0.1676" y="-1" relative="1" as="geometry">
            <mxPoint as="offset" />
          </mxGeometry>
        </mxCell>
        <mxCell id="kh8GKiCDwH6RABgB_8PD-69" style="edgeStyle=orthogonalEdgeStyle;rounded=0;orthogonalLoop=1;jettySize=auto;html=1;" edge="1" parent="1">
          <mxGeometry relative="1" as="geometry">
            <mxPoint x="670" y="220.0000000000001" as="sourcePoint" />
            <mxPoint x="696.9655172413793" y="389.9999999999999" as="targetPoint" />
            <Array as="points">
              <mxPoint x="697" y="220" />
            </Array>
          </mxGeometry>
        </mxCell>
        <mxCell id="kh8GKiCDwH6RABgB_8PD-70" value="Phiếu sử dụng" style="edgeLabel;html=1;align=center;verticalAlign=middle;resizable=0;points=[];" vertex="1" connectable="0" parent="kh8GKiCDwH6RABgB_8PD-69">
          <mxGeometry x="0.0411" y="-1" relative="1" as="geometry">
            <mxPoint as="offset" />
          </mxGeometry>
        </mxCell>
        <mxCell id="kh8GKiCDwH6RABgB_8PD-71" style="edgeStyle=orthogonalEdgeStyle;rounded=0;orthogonalLoop=1;jettySize=auto;html=1;exitX=1;exitY=1;exitDx=0;exitDy=0;entryX=0;entryY=0;entryDx=0;entryDy=0;" edge="1" parent="1" source="kh8GKiCDwH6RABgB_8PD-11" target="kh8GKiCDwH6RABgB_8PD-15">
          <mxGeometry relative="1" as="geometry">
            <Array as="points">
              <mxPoint x="430" y="520" />
              <mxPoint x="430" y="630" />
            </Array>
          </mxGeometry>
        </mxCell>
        <mxCell id="kh8GKiCDwH6RABgB_8PD-72" value="Tra cứu khách hàng" style="edgeLabel;html=1;align=center;verticalAlign=middle;resizable=0;points=[];" vertex="1" connectable="0" parent="kh8GKiCDwH6RABgB_8PD-71">
          <mxGeometry x="0.1961" y="-2" relative="1" as="geometry">
            <mxPoint as="offset" />
          </mxGeometry>
        </mxCell>
        <mxCell id="kh8GKiCDwH6RABgB_8PD-73" style="edgeStyle=orthogonalEdgeStyle;rounded=0;orthogonalLoop=1;jettySize=auto;html=1;exitX=0;exitY=0.5;exitDx=0;exitDy=0;entryX=0.448;entryY=1.031;entryDx=0;entryDy=0;entryPerimeter=0;" edge="1" parent="1" source="kh8GKiCDwH6RABgB_8PD-15" target="kh8GKiCDwH6RABgB_8PD-11">
          <mxGeometry relative="1" as="geometry" />
        </mxCell>
        <mxCell id="kh8GKiCDwH6RABgB_8PD-74" value="Thông tin khách hàng" style="edgeLabel;html=1;align=center;verticalAlign=middle;resizable=0;points=[];" vertex="1" connectable="0" parent="kh8GKiCDwH6RABgB_8PD-73">
          <mxGeometry x="-0.0394" y="1" relative="1" as="geometry">
            <mxPoint as="offset" />
          </mxGeometry>
        </mxCell>
        <mxCell id="kh8GKiCDwH6RABgB_8PD-75" style="edgeStyle=orthogonalEdgeStyle;rounded=0;orthogonalLoop=1;jettySize=auto;html=1;exitX=1;exitY=0.25;exitDx=0;exitDy=0;entryX=0;entryY=0.5;entryDx=0;entryDy=0;" edge="1" parent="1" source="kh8GKiCDwH6RABgB_8PD-11" target="kh8GKiCDwH6RABgB_8PD-17">
          <mxGeometry relative="1" as="geometry" />
        </mxCell>
        <mxCell id="kh8GKiCDwH6RABgB_8PD-76" value="Phiếu đặt phòng" style="edgeLabel;html=1;align=center;verticalAlign=middle;resizable=0;points=[];" vertex="1" connectable="0" parent="kh8GKiCDwH6RABgB_8PD-75">
          <mxGeometry x="0.1241" relative="1" as="geometry">
            <mxPoint as="offset" />
          </mxGeometry>
        </mxCell>
        <mxCell id="kh8GKiCDwH6RABgB_8PD-79" style="edgeStyle=orthogonalEdgeStyle;rounded=0;orthogonalLoop=1;jettySize=auto;html=1;exitX=1;exitY=0;exitDx=0;exitDy=0;entryX=0.25;entryY=1;entryDx=0;entryDy=0;" edge="1" parent="1" source="kh8GKiCDwH6RABgB_8PD-78" target="kh8GKiCDwH6RABgB_8PD-15">
          <mxGeometry relative="1" as="geometry">
            <mxPoint x="519.9999999999998" y="850" as="targetPoint" />
            <Array as="points">
              <mxPoint x="580" y="754" />
              <mxPoint x="670" y="754" />
              <mxPoint x="670" y="710" />
            </Array>
          </mxGeometry>
        </mxCell>
        <mxCell id="kh8GKiCDwH6RABgB_8PD-109" value="Tra cứu" style="edgeLabel;html=1;align=center;verticalAlign=middle;resizable=0;points=[];" vertex="1" connectable="0" parent="kh8GKiCDwH6RABgB_8PD-79">
          <mxGeometry x="0.0334" y="-2" relative="1" as="geometry">
            <mxPoint as="offset" />
          </mxGeometry>
        </mxCell>
        <mxCell id="kh8GKiCDwH6RABgB_8PD-77" value="" style="html=1;dashed=0;whiteSpace=wrap;shape=mxgraph.dfd.dataStoreID;align=left;spacingLeft=3;points=[[0,0],[0.5,0],[1,0],[0,0.5],[1,0.5],[0,1],[0.5,1],[1,1]];" vertex="1" parent="1">
          <mxGeometry x="490" y="797" width="120" height="30" as="geometry" />
        </mxCell>
        <mxCell id="kh8GKiCDwH6RABgB_8PD-78" value="Bảng giá" style="text;html=1;align=center;verticalAlign=middle;whiteSpace=wrap;rounded=0;" vertex="1" parent="1">
          <mxGeometry x="520" y="797" width="60" height="30" as="geometry" />
        </mxCell>
        <mxCell id="kh8GKiCDwH6RABgB_8PD-80" style="edgeStyle=orthogonalEdgeStyle;rounded=0;orthogonalLoop=1;jettySize=auto;html=1;exitX=0.5;exitY=0;exitDx=0;exitDy=0;entryX=0.618;entryY=1;entryDx=0;entryDy=0;entryPerimeter=0;" edge="1" parent="1" source="kh8GKiCDwH6RABgB_8PD-14" target="kh8GKiCDwH6RABgB_8PD-17">
          <mxGeometry relative="1" as="geometry" />
        </mxCell>
        <mxCell id="kh8GKiCDwH6RABgB_8PD-81" value="Giá phòng" style="edgeLabel;html=1;align=center;verticalAlign=middle;resizable=0;points=[];" vertex="1" connectable="0" parent="kh8GKiCDwH6RABgB_8PD-80">
          <mxGeometry x="0.0407" y="2" relative="1" as="geometry">
            <mxPoint as="offset" />
          </mxGeometry>
        </mxCell>
        <mxCell id="kh8GKiCDwH6RABgB_8PD-87" style="edgeStyle=orthogonalEdgeStyle;rounded=0;orthogonalLoop=1;jettySize=auto;html=1;exitX=0;exitY=0.25;exitDx=0;exitDy=0;entryX=1;entryY=0.25;entryDx=0;entryDy=0;" edge="1" parent="1" source="kh8GKiCDwH6RABgB_8PD-84" target="kh8GKiCDwH6RABgB_8PD-15">
          <mxGeometry relative="1" as="geometry" />
        </mxCell>
        <mxCell id="kh8GKiCDwH6RABgB_8PD-91" value="Text" style="edgeLabel;html=1;align=center;verticalAlign=middle;resizable=0;points=[];" vertex="1" connectable="0" parent="kh8GKiCDwH6RABgB_8PD-87">
          <mxGeometry x="0.2205" relative="1" as="geometry">
            <mxPoint as="offset" />
          </mxGeometry>
        </mxCell>
        <mxCell id="kh8GKiCDwH6RABgB_8PD-84" value="Bộ phận quản lý" style="html=1;dashed=0;whiteSpace=wrap;" vertex="1" parent="1">
          <mxGeometry x="940" y="635" width="160" height="70" as="geometry" />
        </mxCell>
        <mxCell id="kh8GKiCDwH6RABgB_8PD-85" style="edgeStyle=orthogonalEdgeStyle;rounded=0;orthogonalLoop=1;jettySize=auto;html=1;exitX=1;exitY=0.5;exitDx=0;exitDy=0;entryX=0;entryY=0.5;entryDx=0;entryDy=0;" edge="1" parent="1" source="kh8GKiCDwH6RABgB_8PD-15" target="kh8GKiCDwH6RABgB_8PD-84">
          <mxGeometry relative="1" as="geometry">
            <mxPoint x="809.9999999999998" y="635" as="sourcePoint" />
          </mxGeometry>
        </mxCell>
        <mxCell id="kh8GKiCDwH6RABgB_8PD-86" value="Báo cáo doanh thu" style="edgeLabel;html=1;align=center;verticalAlign=middle;resizable=0;points=[];" vertex="1" connectable="0" parent="kh8GKiCDwH6RABgB_8PD-85">
          <mxGeometry x="-0.0765" y="1" relative="1" as="geometry">
            <mxPoint as="offset" />
          </mxGeometry>
        </mxCell>
        <mxCell id="kh8GKiCDwH6RABgB_8PD-89" style="edgeStyle=orthogonalEdgeStyle;rounded=0;orthogonalLoop=1;jettySize=auto;html=1;exitX=1;exitY=0.75;exitDx=0;exitDy=0;entryX=0;entryY=0.25;entryDx=0;entryDy=0;" edge="1" parent="1" source="kh8GKiCDwH6RABgB_8PD-11" target="kh8GKiCDwH6RABgB_8PD-14">
          <mxGeometry relative="1" as="geometry" />
        </mxCell>
        <mxCell id="kh8GKiCDwH6RABgB_8PD-90" value="Cập nhật tình trạng phòng" style="edgeLabel;html=1;align=center;verticalAlign=middle;resizable=0;points=[];" vertex="1" connectable="0" parent="kh8GKiCDwH6RABgB_8PD-89">
          <mxGeometry x="-0.0126" y="-1" relative="1" as="geometry">
            <mxPoint as="offset" />
          </mxGeometry>
        </mxCell>
        <mxCell id="kh8GKiCDwH6RABgB_8PD-93" style="edgeStyle=orthogonalEdgeStyle;rounded=0;orthogonalLoop=1;jettySize=auto;html=1;exitX=1;exitY=0.75;exitDx=0;exitDy=0;entryX=0.81;entryY=-0.056;entryDx=0;entryDy=0;entryPerimeter=0;" edge="1" parent="1" source="kh8GKiCDwH6RABgB_8PD-15" target="kh8GKiCDwH6RABgB_8PD-39">
          <mxGeometry relative="1" as="geometry">
            <Array as="points">
              <mxPoint x="780" y="700" />
              <mxPoint x="886" y="700" />
            </Array>
          </mxGeometry>
        </mxCell>
        <mxCell id="kh8GKiCDwH6RABgB_8PD-114" value="Cập nhật" style="edgeLabel;html=1;align=center;verticalAlign=middle;resizable=0;points=[];" vertex="1" connectable="0" parent="kh8GKiCDwH6RABgB_8PD-93">
          <mxGeometry x="0.3845" y="-3" relative="1" as="geometry">
            <mxPoint as="offset" />
          </mxGeometry>
        </mxCell>
        <mxCell id="kh8GKiCDwH6RABgB_8PD-94" style="edgeStyle=orthogonalEdgeStyle;rounded=0;orthogonalLoop=1;jettySize=auto;html=1;exitX=0.25;exitY=1;exitDx=0;exitDy=0;entryX=0;entryY=0;entryDx=0;entryDy=0;" edge="1" parent="1" source="kh8GKiCDwH6RABgB_8PD-15" target="kh8GKiCDwH6RABgB_8PD-78">
          <mxGeometry relative="1" as="geometry">
            <Array as="points">
              <mxPoint x="630" y="710" />
              <mxPoint x="630" y="740" />
              <mxPoint x="520" y="740" />
            </Array>
          </mxGeometry>
        </mxCell>
        <mxCell id="kh8GKiCDwH6RABgB_8PD-110" value="Cập nhật" style="edgeLabel;html=1;align=center;verticalAlign=middle;resizable=0;points=[];" vertex="1" connectable="0" parent="kh8GKiCDwH6RABgB_8PD-94">
          <mxGeometry x="0.1465" y="-1" relative="1" as="geometry">
            <mxPoint as="offset" />
          </mxGeometry>
        </mxCell>
        <mxCell id="kh8GKiCDwH6RABgB_8PD-95" style="edgeStyle=orthogonalEdgeStyle;rounded=0;orthogonalLoop=1;jettySize=auto;html=1;exitX=1;exitY=0.25;exitDx=0;exitDy=0;entryX=0;entryY=0.75;entryDx=0;entryDy=0;" edge="1" parent="1" source="kh8GKiCDwH6RABgB_8PD-17" target="kh8GKiCDwH6RABgB_8PD-13">
          <mxGeometry relative="1" as="geometry" />
        </mxCell>
        <mxCell id="kh8GKiCDwH6RABgB_8PD-96" value="Cập nhật tình trạng" style="edgeLabel;html=1;align=center;verticalAlign=middle;resizable=0;points=[];" vertex="1" connectable="0" parent="kh8GKiCDwH6RABgB_8PD-95">
          <mxGeometry x="0.2895" y="-1" relative="1" as="geometry">
            <mxPoint x="-16" y="-1" as="offset" />
          </mxGeometry>
        </mxCell>
        <mxCell id="kh8GKiCDwH6RABgB_8PD-97" style="edgeStyle=orthogonalEdgeStyle;rounded=0;orthogonalLoop=1;jettySize=auto;html=1;exitX=1;exitY=0;exitDx=0;exitDy=0;entryX=0.833;entryY=1;entryDx=0;entryDy=0;entryPerimeter=0;" edge="1" parent="1" source="kh8GKiCDwH6RABgB_8PD-15" target="kh8GKiCDwH6RABgB_8PD-26">
          <mxGeometry relative="1" as="geometry">
            <Array as="points">
              <mxPoint x="900" y="630" />
              <mxPoint x="900" y="600" />
              <mxPoint x="1100" y="600" />
            </Array>
          </mxGeometry>
        </mxCell>
        <mxCell id="kh8GKiCDwH6RABgB_8PD-98" value="Cập nhật dịch vụ" style="edgeLabel;html=1;align=center;verticalAlign=middle;resizable=0;points=[];" vertex="1" connectable="0" parent="kh8GKiCDwH6RABgB_8PD-97">
          <mxGeometry x="0.2907" y="-2" relative="1" as="geometry">
            <mxPoint as="offset" />
          </mxGeometry>
        </mxCell>
        <mxCell id="kh8GKiCDwH6RABgB_8PD-105" style="edgeStyle=orthogonalEdgeStyle;rounded=0;orthogonalLoop=1;jettySize=auto;html=1;exitX=1;exitY=0.75;exitDx=0;exitDy=0;entryX=0.093;entryY=0.018;entryDx=0;entryDy=0;entryPerimeter=0;" edge="1" parent="1" source="kh8GKiCDwH6RABgB_8PD-4" target="kh8GKiCDwH6RABgB_8PD-16">
          <mxGeometry relative="1" as="geometry">
            <Array as="points">
              <mxPoint x="450" y="290" />
              <mxPoint x="606" y="290" />
            </Array>
          </mxGeometry>
        </mxCell>
        <mxCell id="kh8GKiCDwH6RABgB_8PD-106" value="Đền bù" style="edgeLabel;html=1;align=center;verticalAlign=middle;resizable=0;points=[];" vertex="1" connectable="0" parent="kh8GKiCDwH6RABgB_8PD-105">
          <mxGeometry x="-0.2221" relative="1" as="geometry">
            <mxPoint as="offset" />
          </mxGeometry>
        </mxCell>
      </root>
    </mxGraphModel>
  </diagram>
</mxfile>
